<?xml version="1.0" encoding="UTF-8" standalone="no"?>
<!DOCTYPE svg PUBLIC "-//W3C//DTD SVG 1.1//EN" "http://www.w3.org/Graphics/SVG/1.1/DTD/svg11.dtd">
<svg width="100%" height="100%" viewBox="0 0 72 72" version="1.1" xmlns="http://www.w3.org/2000/svg" xmlns:xlink="http://www.w3.org/1999/xlink" xml:space="preserve" xmlns:serif="http://www.serif.com/" style="fill-rule:evenodd;clip-rule:evenodd;stroke-linejoin:round;stroke-miterlimit:1.41421;">
    <g id="o" transform="matrix(1,0,0,1,-244.904,-87.166)">
        <g transform="matrix(1.125,0,0,1.125,25.5287,-71.459)">
            <circle cx="227" cy="173" r="32" style="fill:rgb(245,121,255);"/>
            <path d="M227.207,141.001L227.413,141.003L227.62,141.006L227.825,141.01L228.031,141.016L228.236,141.023L228.441,141.032L228.646,141.042L228.85,141.053L229.054,141.065L229.257,141.079L229.461,141.093L229.663,141.109L229.866,141.127L230.068,141.145L230.27,141.165L230.471,141.186L230.672,141.209L230.873,141.232L231.073,141.257L231.273,141.283L231.473,141.311L231.672,141.339L231.871,141.369L232.069,141.4L232.267,141.432L232.464,141.466L232.661,141.5L232.858,141.536L233.054,141.573L233.25,141.611L233.446,141.651L233.641,141.691L233.835,141.733L234.029,141.776L234.223,141.82L234.416,141.865L234.609,141.912L234.801,141.959L234.993,142.008L235.185,142.058L235.376,142.109L235.566,142.161L235.756,142.215L235.946,142.269L236.135,142.325L236.323,142.382L236.511,142.44L236.699,142.499L236.886,142.559L237.073,142.62L237.259,142.683L237.444,142.746L237.629,142.811L237.814,142.876L237.998,142.943L238.181,143.011L238.364,143.08L238.547,143.15L238.729,143.221L238.91,143.293L239.091,143.367L239.271,143.441L239.451,143.516L239.63,143.593L239.809,143.67L239.987,143.749L240.164,143.829L240.341,143.909L240.517,143.991L240.693,144.074L240.868,144.158L241.043,144.242L241.217,144.328L241.39,144.415L241.563,144.503L241.735,144.592L241.907,144.682L242.078,144.773L242.248,144.865L242.418,144.958L242.587,145.051L242.755,145.146L242.923,145.242L243.09,145.339L243.257,145.437L243.423,145.536L243.588,145.635L243.753,145.736L243.916,145.838L244.08,145.941L244.242,146.044L244.404,146.149L244.566,146.254L244.726,146.361L244.886,146.468L245.046,146.577L245.204,146.686L245.362,146.796L245.519,146.907L245.676,147.019L245.832,147.132L245.987,147.246L246.141,147.361L246.295,147.476L246.448,147.593L246.6,147.71L246.751,147.829L246.902,147.948L247.052,148.068L247.201,148.189L247.35,148.311L247.498,148.434L247.645,148.557L247.791,148.682L247.937,148.807L248.082,148.933L248.226,149.061L248.369,149.188L248.511,149.317L248.653,149.447L248.794,149.577L248.934,149.708L249.074,149.84L249.212,149.973L249.35,150.107L249.487,150.242L249.623,150.377L249.758,150.513L249.893,150.65L250.027,150.788L250.16,150.926L250.292,151.066L250.423,151.206L250.553,151.347L250.683,151.489L250.812,151.631L250.939,151.774L251.067,151.918L251.193,152.063L251.318,152.209L251.443,152.355L251.566,152.502L251.689,152.65L251.811,152.799L251.932,152.948L252.052,153.098L252.171,153.249L252.29,153.4L252.407,153.552L252.524,153.705L252.639,153.859L252.754,154.013L252.868,154.168L252.981,154.324L253.093,154.481L253.204,154.638L253.314,154.796L253.423,154.954L253.532,155.114L253.639,155.274L253.746,155.434L253.851,155.596L253.956,155.758L254.059,155.92L254.162,156.084L254.264,156.247L254.365,156.412L254.464,156.577L254.563,156.743L254.661,156.91L254.758,157.077L254.854,157.245L254.949,157.413L255.042,157.582L255.135,157.752L255.227,157.922L255.318,158.093L255.408,158.265L255.497,158.437L255.585,158.61L255.672,158.783L255.758,158.957L255.842,159.132L255.926,159.307L256.009,159.483L256.091,159.659L256.171,159.836L256.251,160.013L256.33,160.191L256.407,160.37L256.484,160.549L256.559,160.729L256.633,160.909L256.707,161.09L256.779,161.271L256.85,161.453L256.92,161.636L256.989,161.819L257.057,162.002L257.124,162.186L257.189,162.371L257.254,162.556L257.317,162.741L257.38,162.927L257.441,163.114L257.501,163.301L257.56,163.489L257.618,163.677L257.675,163.865L257.731,164.054L257.785,164.244L257.839,164.434L257.891,164.624L257.942,164.815L257.992,165.007L258.041,165.199L258.088,165.391L258.135,165.584L258.18,165.777L258.224,165.971L258.267,166.165L258.309,166.359L258.349,166.554L258.389,166.75L258.427,166.946L258.464,167.142L258.5,167.339L258.534,167.536L258.568,167.733L258.6,167.931L258.631,168.129L258.661,168.328L258.689,168.527L258.717,168.727L258.743,168.927L258.768,169.127L258.791,169.328L258.814,169.529L258.835,169.73L258.855,169.932L258.873,170.134L258.891,170.337L258.907,170.539L258.921,170.743L258.935,170.946L258.947,171.15L258.958,171.354L258.968,171.559L258.977,171.764L258.984,171.969L258.99,172.175L258.994,172.38L258.997,172.587L258.999,172.793L259,173L258.999,173.207L258.997,173.413L258.994,173.62L258.99,173.825L258.984,174.031L258.977,174.236L258.968,174.441L258.958,174.646L258.947,174.85L258.935,175.054L258.921,175.257L258.907,175.461L258.891,175.663L258.873,175.866L258.855,176.068L258.835,176.27L258.814,176.471L258.791,176.672L258.768,176.873L258.743,177.073L258.717,177.273L258.689,177.473L258.661,177.672L258.631,177.871L258.6,178.069L258.568,178.267L258.534,178.464L258.5,178.661L258.464,178.858L258.427,179.054L258.389,179.25L258.349,179.446L258.309,179.641L258.267,179.835L258.224,180.029L258.18,180.223L258.135,180.416L258.088,180.609L258.041,180.801L257.992,180.993L257.942,181.185L257.891,181.376L257.839,181.566L257.785,181.756L257.731,181.946L257.675,182.135L257.618,182.323L257.56,182.511L257.501,182.699L257.441,182.886L257.38,183.073L257.317,183.259L257.254,183.444L257.189,183.629L257.124,183.814L257.057,183.998L256.989,184.181L256.92,184.364L256.85,184.547L256.779,184.729L256.707,184.91L256.633,185.091L256.559,185.271L256.484,185.451L256.407,185.63L256.33,185.809L256.251,185.987L256.171,186.164L256.091,186.341L256.009,186.517L255.926,186.693L255.842,186.868L255.758,187.043L255.672,187.217L255.585,187.39L255.497,187.563L255.408,187.735L255.318,187.907L255.227,188.078L255.135,188.248L255.042,188.418L254.949,188.587L254.854,188.755L254.758,188.923L254.661,189.09L254.563,189.257L254.464,189.423L254.365,189.588L254.264,189.753L254.162,189.916L254.059,190.08L253.956,190.242L253.851,190.404L253.746,190.566L253.639,190.726L253.532,190.886L253.423,191.046L253.314,191.204L253.204,191.362L253.093,191.519L252.981,191.676L252.868,191.832L252.754,191.987L252.639,192.141L252.524,192.295L252.407,192.448L252.29,192.6L252.171,192.751L252.052,192.902L251.932,193.052L251.811,193.201L251.689,193.35L251.566,193.498L251.443,193.645L251.318,193.791L251.193,193.937L251.067,194.082L250.939,194.226L250.812,194.369L250.683,194.511L250.553,194.653L250.423,194.794L250.292,194.934L250.16,195.074L250.027,195.212L249.893,195.35L249.758,195.487L249.623,195.623L249.487,195.758L249.35,195.893L249.212,196.027L249.074,196.16L248.934,196.292L248.794,196.423L248.653,196.553L248.511,196.683L248.369,196.812L248.226,196.939L248.082,197.067L247.937,197.193L247.791,197.318L247.645,197.443L247.498,197.566L247.35,197.689L247.201,197.811L247.052,197.932L246.902,198.052L246.751,198.171L246.6,198.29L246.448,198.407L246.295,198.524L246.141,198.639L245.987,198.754L245.832,198.868L245.676,198.981L245.519,199.093L245.362,199.204L245.204,199.314L245.046,199.423L244.886,199.532L244.726,199.639L244.566,199.746L244.404,199.851L244.242,199.956L244.08,200.059L243.916,200.162L243.753,200.264L243.588,200.365L243.423,200.464L243.257,200.563L243.09,200.661L242.923,200.758L242.755,200.854L242.587,200.949L242.418,201.042L242.248,201.135L242.078,201.227L241.907,201.318L241.735,201.408L241.563,201.497L241.39,201.585L241.217,201.672L241.043,201.758L240.868,201.842L240.693,201.926L240.517,202.009L240.341,202.091L240.164,202.171L239.987,202.251L239.809,202.33L239.63,202.407L239.451,202.484L239.271,202.559L239.091,202.633L238.91,202.707L238.729,202.779L238.547,202.85L238.364,202.92L238.181,202.989L237.998,203.057L237.814,203.124L237.629,203.189L237.444,203.254L237.259,203.317L237.073,203.38L236.886,203.441L236.699,203.501L236.511,203.56L236.323,203.618L236.135,203.675L235.946,203.731L235.756,203.785L235.566,203.839L235.376,203.891L235.185,203.942L234.993,203.992L234.801,204.041L234.609,204.088L234.416,204.135L234.223,204.18L234.029,204.224L233.835,204.267L233.641,204.309L233.446,204.349L233.25,204.389L233.054,204.427L232.858,204.464L232.661,204.5L232.464,204.534L232.267,204.568L232.069,204.6L231.871,204.631L231.672,204.661L231.473,204.689L231.273,204.717L231.073,204.743L230.873,204.768L230.672,204.791L230.471,204.814L230.27,204.835L230.068,204.855L229.866,204.873L229.663,204.891L229.461,204.907L229.257,204.921L229.054,204.935L228.85,204.947L228.646,204.958L228.441,204.968L228.236,204.977L228.031,204.984L227.825,204.99L227.62,204.994L227.413,204.997L227.207,204.999L227,205L226.793,204.999L226.587,204.997L226.38,204.994L226.175,204.99L225.969,204.984L225.764,204.977L225.559,204.968L225.354,204.958L225.15,204.947L224.946,204.935L224.743,204.921L224.539,204.907L224.337,204.891L224.134,204.873L223.932,204.855L223.73,204.835L223.529,204.814L223.328,204.791L223.127,204.768L222.927,204.743L222.727,204.717L222.527,204.689L222.328,204.661L222.129,204.631L221.931,204.6L221.733,204.568L221.536,204.534L221.339,204.5L221.142,204.464L220.946,204.427L220.75,204.389L220.554,204.349L220.359,204.309L220.165,204.267L219.971,204.224L219.777,204.18L219.584,204.135L219.391,204.088L219.199,204.041L219.007,203.992L218.815,203.942L218.624,203.891L218.434,203.839L218.244,203.785L218.054,203.731L217.865,203.675L217.677,203.618L217.489,203.56L217.301,203.501L217.114,203.441L216.927,203.38L216.741,203.317L216.556,203.254L216.371,203.189L216.186,203.124L216.002,203.057L215.819,202.989L215.636,202.92L215.453,202.85L215.271,202.779L215.09,202.707L214.909,202.633L214.729,202.559L214.549,202.484L214.37,202.407L214.191,202.33L214.013,202.251L213.836,202.171L213.659,202.091L213.483,202.009L213.307,201.926L213.132,201.842L212.957,201.758L212.783,201.672L212.61,201.585L212.437,201.497L212.265,201.408L212.093,201.318L211.922,201.227L211.752,201.135L211.582,201.042L211.413,200.949L211.245,200.854L211.077,200.758L210.91,200.661L210.743,200.563L210.577,200.464L210.412,200.365L210.247,200.264L210.084,200.162L209.92,200.059L209.758,199.956L209.596,199.851L209.434,199.746L209.274,199.639L209.114,199.532L208.954,199.423L208.796,199.314L208.638,199.204L208.481,199.093L208.324,198.981L208.168,198.868L208.013,198.754L207.859,198.639L207.705,198.524L207.552,198.407L207.4,198.29L207.249,198.171L207.098,198.052L206.948,197.932L206.799,197.811L206.65,197.689L206.502,197.566L206.355,197.443L206.209,197.318L206.063,197.193L205.918,197.067L205.774,196.939L205.631,196.812L205.489,196.683L205.347,196.553L205.206,196.423L205.066,196.292L204.926,196.16L204.788,196.027L204.65,195.893L204.513,195.758L204.377,195.623L204.242,195.487L204.107,195.35L203.973,195.212L203.84,195.074L203.708,194.934L203.577,194.794L203.447,194.653L203.317,194.511L203.188,194.369L203.061,194.226L202.933,194.082L202.807,193.937L202.682,193.791L202.557,193.645L202.434,193.498L202.311,193.35L202.189,193.201L202.068,193.052L201.948,192.902L201.829,192.751L201.71,192.6L201.593,192.448L201.476,192.295L201.361,192.141L201.246,191.987L201.132,191.832L201.019,191.676L200.907,191.519L200.796,191.362L200.686,191.204L200.577,191.046L200.468,190.886L200.361,190.726L200.254,190.566L200.149,190.404L200.044,190.242L199.941,190.08L199.838,189.916L199.736,189.753L199.635,189.588L199.536,189.423L199.437,189.257L199.339,189.09L199.242,188.923L199.146,188.755L199.051,188.587L198.958,188.418L198.865,188.248L198.773,188.078L198.682,187.907L198.592,187.735L198.503,187.563L198.415,187.39L198.328,187.217L198.242,187.043L198.158,186.868L198.074,186.693L197.991,186.517L197.909,186.341L197.829,186.164L197.749,185.987L197.67,185.809L197.593,185.63L197.516,185.451L197.441,185.271L197.367,185.091L197.293,184.91L197.221,184.729L197.15,184.547L197.08,184.364L197.011,184.181L196.943,183.998L196.876,183.814L196.811,183.629L196.746,183.444L196.683,183.259L196.62,183.073L196.559,182.886L196.499,182.699L196.44,182.511L196.382,182.323L196.325,182.135L196.269,181.946L196.215,181.756L196.161,181.566L196.109,181.376L196.058,181.185L196.008,180.993L195.959,180.801L195.912,180.609L195.865,180.416L195.82,180.223L195.776,180.029L195.733,179.835L195.691,179.641L195.651,179.446L195.611,179.25L195.573,179.054L195.536,178.858L195.5,178.661L195.466,178.464L195.432,178.267L195.4,178.069L195.369,177.871L195.339,177.672L195.311,177.473L195.283,177.273L195.257,177.073L195.232,176.873L195.209,176.672L195.186,176.471L195.165,176.27L195.145,176.068L195.127,175.866L195.109,175.663L195.093,175.461L195.079,175.257L195.065,175.054L195.053,174.85L195.042,174.646L195.032,174.441L195.023,174.236L195.016,174.031L195.01,173.825L195.006,173.62L195.003,173.413L195.001,173.207L195,173L195.001,172.793L195.003,172.587L195.006,172.38L195.01,172.175L195.016,171.969L195.023,171.764L195.032,171.559L195.042,171.354L195.053,171.15L195.065,170.946L195.079,170.743L195.093,170.539L195.109,170.337L195.127,170.134L195.145,169.932L195.165,169.73L195.186,169.529L195.209,169.328L195.232,169.127L195.257,168.927L195.283,168.727L195.311,168.527L195.339,168.328L195.369,168.129L195.4,167.931L195.432,167.733L195.466,167.536L195.5,167.339L195.536,167.142L195.573,166.946L195.611,166.75L195.651,166.554L195.691,166.359L195.733,166.165L195.776,165.971L195.82,165.777L195.865,165.584L195.912,165.391L195.959,165.199L196.008,165.007L196.058,164.815L196.109,164.624L196.161,164.434L196.215,164.244L196.269,164.054L196.325,163.865L196.382,163.677L196.44,163.489L196.499,163.301L196.559,163.114L196.62,162.927L196.683,162.741L196.746,162.556L196.811,162.371L196.876,162.186L196.943,162.002L197.011,161.819L197.08,161.636L197.15,161.453L197.221,161.271L197.293,161.09L197.367,160.909L197.441,160.729L197.516,160.549L197.593,160.37L197.67,160.191L197.749,160.013L197.829,159.836L197.909,159.659L197.991,159.483L198.074,159.307L198.158,159.132L198.242,158.957L198.328,158.783L198.415,158.61L198.503,158.437L198.592,158.265L198.682,158.093L198.773,157.922L198.865,157.752L198.958,157.582L199.051,157.413L199.146,157.245L199.242,157.077L199.339,156.91L199.437,156.743L199.536,156.577L199.635,156.412L199.736,156.247L199.838,156.084L199.941,155.92L200.044,155.758L200.149,155.596L200.254,155.434L200.361,155.274L200.468,155.114L200.577,154.954L200.686,154.796L200.796,154.638L200.907,154.481L201.019,154.324L201.132,154.168L201.246,154.013L201.361,153.859L201.476,153.705L201.593,153.552L201.71,153.4L201.829,153.249L201.948,153.098L202.068,152.948L202.189,152.799L202.311,152.65L202.434,152.502L202.557,152.355L202.682,152.209L202.807,152.063L202.933,151.918L203.061,151.774L203.188,151.631L203.317,151.489L203.447,151.347L203.577,151.206L203.708,151.066L203.84,150.926L203.973,150.788L204.107,150.65L204.242,150.513L204.377,150.377L204.513,150.242L204.65,150.107L204.788,149.973L204.926,149.84L205.066,149.708L205.206,149.577L205.347,149.447L205.489,149.317L205.631,149.188L205.774,149.061L205.918,148.933L206.063,148.807L206.209,148.682L206.355,148.557L206.502,148.434L206.65,148.311L206.799,148.189L206.948,148.068L207.098,147.948L207.249,147.829L207.4,147.71L207.552,147.593L207.705,147.476L207.859,147.361L208.013,147.246L208.168,147.132L208.324,147.019L208.481,146.907L208.638,146.796L208.796,146.686L208.954,146.577L209.114,146.468L209.274,146.361L209.434,146.254L209.596,146.149L209.758,146.044L209.92,145.941L210.084,145.838L210.247,145.736L210.412,145.635L210.577,145.536L210.743,145.437L210.91,145.339L211.077,145.242L211.245,145.146L211.413,145.051L211.582,144.958L211.752,144.865L211.922,144.773L212.093,144.682L212.265,144.592L212.437,144.503L212.61,144.415L212.783,144.328L212.957,144.242L213.132,144.158L213.307,144.074L213.483,143.991L213.659,143.909L213.836,143.829L214.013,143.749L214.191,143.67L214.37,143.593L214.549,143.516L214.729,143.441L214.909,143.367L215.09,143.293L215.271,143.221L215.453,143.15L215.636,143.08L215.819,143.011L216.002,142.943L216.186,142.876L216.371,142.811L216.556,142.746L216.741,142.683L216.927,142.62L217.114,142.559L217.301,142.499L217.489,142.44L217.677,142.382L217.865,142.325L218.054,142.269L218.244,142.215L218.434,142.161L218.624,142.109L218.815,142.058L219.007,142.008L219.199,141.959L219.391,141.912L219.584,141.865L219.777,141.82L219.971,141.776L220.165,141.733L220.359,141.691L220.554,141.651L220.75,141.611L220.946,141.573L221.142,141.536L221.339,141.5L221.536,141.466L221.733,141.432L221.931,141.4L222.129,141.369L222.328,141.339L222.527,141.311L222.727,141.283L222.927,141.257L223.127,141.232L223.328,141.209L223.529,141.186L223.73,141.165L223.932,141.145L224.134,141.127L224.337,141.109L224.539,141.093L224.743,141.079L224.946,141.065L225.15,141.053L225.354,141.042L225.559,141.032L225.764,141.023L225.969,141.016L226.175,141.01L226.38,141.006L226.587,141.003L226.793,141.001L227,141L227.207,141.001ZM226.816,144.556L226.632,144.558L226.448,144.561L226.265,144.565L226.082,144.57L225.899,144.576L225.717,144.584L225.535,144.593L225.353,144.602L225.171,144.613L224.99,144.625L224.81,144.639L224.629,144.653L224.449,144.668L224.269,144.685L224.09,144.703L223.911,144.721L223.732,144.741L223.554,144.762L223.376,144.784L223.198,144.808L223.021,144.832L222.844,144.857L222.667,144.884L222.491,144.911L222.315,144.94L222.14,144.969L221.964,145L221.79,145.032L221.615,145.065L221.441,145.099L221.268,145.134L221.095,145.17L220.922,145.207L220.749,145.245L220.577,145.284L220.406,145.325L220.235,145.366L220.064,145.408L219.893,145.451L219.723,145.496L219.554,145.541L219.385,145.587L219.216,145.635L219.048,145.683L218.88,145.733L218.712,145.783L218.545,145.835L218.379,145.887L218.213,145.94L218.047,145.995L217.882,146.05L217.717,146.107L217.553,146.164L217.389,146.222L217.225,146.282L217.062,146.342L216.9,146.403L216.738,146.465L216.576,146.528L216.415,146.593L216.255,146.658L216.095,146.724L215.935,146.791L215.776,146.859L215.617,146.928L215.459,146.997L215.302,147.068L215.144,147.14L214.988,147.212L214.832,147.286L214.676,147.36L214.521,147.436L214.366,147.512L214.212,147.589L214.059,147.667L213.906,147.746L213.753,147.826L213.601,147.907L213.45,147.989L213.299,148.071L213.149,148.155L212.999,148.239L212.85,148.324L212.701,148.41L212.553,148.497L212.406,148.585L212.259,148.674L212.113,148.763L211.967,148.854L211.822,148.945L211.677,149.037L211.533,149.13L211.39,149.224L211.247,149.319L211.105,149.414L210.963,149.51L210.822,149.608L210.682,149.706L210.542,149.804L210.403,149.904L210.264,150.005L210.126,150.106L209.989,150.208L209.852,150.311L209.716,150.414L209.581,150.519L209.446,150.624L209.312,150.73L209.178,150.837L209.045,150.945L208.913,151.053L208.782,151.162L208.651,151.272L208.521,151.383L208.391,151.495L208.263,151.607L208.134,151.72L208.007,151.834L207.88,151.948L207.754,152.064L207.629,152.18L207.504,152.296L207.38,152.414L207.257,152.532L207.134,152.651L207.012,152.771L206.891,152.891L206.771,153.012L206.651,153.134L206.532,153.257L206.414,153.38L206.296,153.504L206.18,153.629L206.064,153.754L205.948,153.88L205.834,154.007L205.72,154.134L205.607,154.263L205.495,154.391L205.383,154.521L205.272,154.651L205.162,154.782L205.053,154.913L204.945,155.045L204.837,155.178L204.73,155.312L204.624,155.446L204.519,155.581L204.414,155.716L204.311,155.852L204.208,155.989L204.106,156.126L204.005,156.264L203.904,156.403L203.804,156.542L203.706,156.682L203.608,156.822L203.51,156.963L203.414,157.105L203.319,157.247L203.224,157.39L203.13,157.533L203.037,157.677L202.945,157.822L202.854,157.967L202.763,158.113L202.674,158.259L202.585,158.406L202.497,158.553L202.41,158.701L202.324,158.85L202.239,158.999L202.155,159.149L202.071,159.299L201.989,159.45L201.907,159.601L201.826,159.753L201.746,159.906L201.667,160.059L201.589,160.212L201.512,160.366L201.436,160.521L201.36,160.676L201.286,160.832L201.212,160.988L201.14,161.144L201.068,161.302L200.997,161.459L200.928,161.617L200.859,161.776L200.791,161.935L200.724,162.095L200.658,162.255L200.593,162.415L200.528,162.576L200.465,162.738L200.403,162.9L200.342,163.062L200.282,163.225L200.222,163.389L200.164,163.553L200.107,163.717L200.05,163.882L199.995,164.047L199.94,164.213L199.887,164.379L199.835,164.545L199.783,164.712L199.733,164.88L199.683,165.048L199.635,165.216L199.587,165.385L199.541,165.554L199.496,165.723L199.451,165.893L199.408,166.064L199.366,166.235L199.325,166.406L199.284,166.577L199.245,166.749L199.207,166.922L199.17,167.095L199.134,167.268L199.099,167.441L199.065,167.615L199.032,167.79L199,167.964L198.969,168.14L198.94,168.315L198.911,168.491L198.884,168.667L198.857,168.844L198.832,169.021L198.808,169.198L198.784,169.376L198.762,169.554L198.741,169.732L198.721,169.911L198.703,170.09L198.685,170.269L198.668,170.449L198.653,170.629L198.639,170.81L198.625,170.99L198.613,171.171L198.602,171.353L198.593,171.535L198.584,171.717L198.576,171.899L198.57,172.082L198.565,172.265L198.561,172.448L198.558,172.632L198.556,172.816L198.556,173L198.556,173.184L198.558,173.368L198.561,173.552L198.565,173.735L198.57,173.918L198.576,174.101L198.584,174.283L198.593,174.465L198.602,174.647L198.613,174.829L198.625,175.01L198.639,175.19L198.653,175.371L198.668,175.551L198.685,175.731L198.703,175.91L198.721,176.089L198.741,176.268L198.762,176.446L198.784,176.624L198.808,176.802L198.832,176.979L198.857,177.156L198.884,177.333L198.911,177.509L198.94,177.685L198.969,177.86L199,178.036L199.032,178.21L199.065,178.385L199.099,178.559L199.134,178.732L199.17,178.905L199.207,179.078L199.245,179.251L199.284,179.423L199.325,179.594L199.366,179.765L199.408,179.936L199.451,180.107L199.496,180.277L199.541,180.446L199.587,180.615L199.635,180.784L199.683,180.952L199.733,181.12L199.783,181.288L199.835,181.455L199.887,181.621L199.94,181.787L199.995,181.953L200.05,182.118L200.107,182.283L200.164,182.447L200.222,182.611L200.282,182.775L200.342,182.938L200.403,183.1L200.465,183.262L200.528,183.424L200.593,183.585L200.658,183.745L200.724,183.905L200.791,184.065L200.859,184.224L200.928,184.383L200.997,184.541L201.068,184.698L201.14,184.856L201.212,185.012L201.286,185.168L201.36,185.324L201.436,185.479L201.512,185.634L201.589,185.788L201.667,185.941L201.746,186.094L201.826,186.247L201.907,186.399L201.989,186.55L202.071,186.701L202.155,186.851L202.239,187.001L202.324,187.15L202.41,187.299L202.497,187.447L202.585,187.594L202.674,187.741L202.763,187.887L202.854,188.033L202.945,188.178L203.037,188.323L203.13,188.467L203.224,188.61L203.319,188.753L203.414,188.895L203.51,189.037L203.608,189.178L203.706,189.318L203.804,189.458L203.904,189.597L204.005,189.736L204.106,189.874L204.208,190.011L204.311,190.148L204.414,190.284L204.519,190.419L204.624,190.554L204.73,190.688L204.837,190.822L204.945,190.955L205.053,191.087L205.162,191.218L205.272,191.349L205.383,191.479L205.495,191.609L205.607,191.737L205.72,191.866L205.834,191.993L205.948,192.12L206.064,192.246L206.18,192.371L206.296,192.496L206.414,192.62L206.532,192.743L206.651,192.866L206.771,192.988L206.891,193.109L207.012,193.229L207.134,193.349L207.257,193.468L207.38,193.586L207.504,193.704L207.629,193.82L207.754,193.936L207.88,194.052L208.007,194.166L208.134,194.28L208.263,194.393L208.391,194.505L208.521,194.617L208.651,194.728L208.782,194.838L208.913,194.947L209.046,195.055L209.178,195.163L209.312,195.27L209.446,195.376L209.581,195.481L209.716,195.586L209.852,195.689L209.989,195.792L210.126,195.894L210.264,195.995L210.403,196.096L210.542,196.196L210.682,196.294L210.822,196.392L210.963,196.49L211.105,196.586L211.247,196.681L211.39,196.776L211.533,196.87L211.677,196.963L211.822,197.055L211.967,197.146L212.113,197.237L212.259,197.326L212.406,197.415L212.553,197.503L212.701,197.59L212.85,197.676L212.999,197.761L213.149,197.845L213.299,197.929L213.45,198.011L213.601,198.093L213.753,198.174L213.906,198.254L214.059,198.333L214.212,198.411L214.366,198.488L214.521,198.564L214.676,198.64L214.832,198.714L214.988,198.788L215.144,198.86L215.302,198.932L215.459,199.003L215.617,199.072L215.776,199.141L215.935,199.209L216.095,199.276L216.255,199.342L216.415,199.407L216.576,199.472L216.738,199.535L216.9,199.597L217.062,199.658L217.225,199.718L217.389,199.778L217.553,199.836L217.717,199.893L217.882,199.95L218.047,200.005L218.213,200.06L218.379,200.113L218.545,200.165L218.712,200.217L218.88,200.267L219.048,200.317L219.216,200.365L219.385,200.413L219.554,200.459L219.723,200.504L219.893,200.549L220.064,200.592L220.235,200.634L220.406,200.675L220.577,200.716L220.749,200.755L220.922,200.793L221.095,200.83L221.268,200.866L221.441,200.901L221.615,200.935L221.79,200.968L221.964,201L222.14,201.031L222.315,201.06L222.491,201.089L222.667,201.116L222.844,201.143L223.021,201.168L223.198,201.192L223.376,201.216L223.554,201.238L223.732,201.259L223.911,201.279L224.09,201.297L224.269,201.315L224.449,201.332L224.629,201.347L224.81,201.361L224.99,201.375L225.171,201.387L225.353,201.398L225.535,201.407L225.717,201.416L225.899,201.424L226.082,201.43L226.265,201.435L226.448,201.439L226.632,201.442L226.816,201.444L227,201.444L227.184,201.444L227.368,201.442L227.552,201.439L227.735,201.435L227.918,201.43L228.101,201.424L228.283,201.416L228.465,201.407L228.647,201.398L228.829,201.387L229.01,201.375L229.19,201.361L229.371,201.347L229.551,201.332L229.731,201.315L229.91,201.297L230.089,201.279L230.268,201.259L230.446,201.238L230.624,201.216L230.802,201.192L230.979,201.168L231.156,201.143L231.333,201.116L231.509,201.089L231.685,201.06L231.86,201.031L232.036,201L232.21,200.968L232.385,200.935L232.559,200.901L232.732,200.866L232.905,200.83L233.078,200.793L233.251,200.755L233.423,200.716L233.594,200.675L233.765,200.634L233.936,200.592L234.107,200.549L234.277,200.504L234.446,200.459L234.615,200.413L234.784,200.365L234.952,200.317L235.12,200.267L235.288,200.217L235.455,200.165L235.621,200.113L235.787,200.06L235.953,200.005L236.118,199.95L236.283,199.893L236.447,199.836L236.611,199.778L236.775,199.718L236.938,199.658L237.1,199.597L237.262,199.535L237.424,199.472L237.585,199.407L237.745,199.342L237.905,199.276L238.065,199.209L238.224,199.141L238.383,199.072L238.541,199.003L238.699,198.932L238.856,198.86L239.012,198.788L239.168,198.714L239.324,198.64L239.479,198.564L239.634,198.488L239.788,198.411L239.941,198.333L240.094,198.254L240.247,198.174L240.399,198.093L240.55,198.011L240.701,197.929L240.851,197.845L241.001,197.761L241.15,197.676L241.299,197.59L241.447,197.503L241.594,197.415L241.741,197.326L241.887,197.237L242.033,197.146L242.178,197.055L242.323,196.963L242.467,196.87L242.61,196.776L242.753,196.681L242.895,196.586L243.037,196.49L243.178,196.392L243.318,196.294L243.458,196.196L243.597,196.096L243.736,195.995L243.874,195.894L244.011,195.792L244.148,195.689L244.284,195.586L244.419,195.481L244.554,195.376L244.688,195.27L244.822,195.163L244.954,195.055L245.087,194.947L245.218,194.838L245.349,194.728L245.479,194.617L245.609,194.505L245.737,194.393L245.866,194.28L245.993,194.166L246.12,194.052L246.246,193.936L246.371,193.82L246.496,193.704L246.62,193.586L246.743,193.468L246.866,193.349L246.988,193.229L247.109,193.109L247.229,192.988L247.349,192.866L247.468,192.743L247.586,192.62L247.704,192.496L247.82,192.371L247.936,192.246L248.052,192.12L248.166,191.993L248.28,191.866L248.393,191.737L248.505,191.609L248.617,191.479L248.728,191.349L248.838,191.218L248.947,191.087L249.055,190.954L249.163,190.822L249.27,190.688L249.376,190.554L249.481,190.419L249.586,190.284L249.689,190.148L249.792,190.011L249.894,189.874L249.995,189.736L250.096,189.597L250.196,189.458L250.294,189.318L250.392,189.178L250.49,189.037L250.586,188.895L250.681,188.753L250.776,188.61L250.87,188.467L250.963,188.323L251.055,188.178L251.146,188.033L251.237,187.887L251.326,187.741L251.415,187.594L251.503,187.447L251.59,187.299L251.676,187.15L251.761,187.001L251.845,186.851L251.929,186.701L252.011,186.55L252.093,186.399L252.174,186.247L252.254,186.094L252.333,185.941L252.411,185.788L252.488,185.634L252.564,185.479L252.64,185.324L252.714,185.168L252.788,185.012L252.86,184.856L252.932,184.699L253.003,184.541L253.072,184.383L253.141,184.224L253.209,184.065L253.276,183.905L253.342,183.745L253.407,183.585L253.472,183.424L253.535,183.262L253.597,183.1L253.658,182.938L253.718,182.775L253.778,182.611L253.836,182.447L253.893,182.283L253.95,182.118L254.005,181.953L254.06,181.787L254.113,181.621L254.165,181.455L254.217,181.288L254.267,181.12L254.317,180.952L254.365,180.784L254.413,180.615L254.459,180.446L254.504,180.277L254.549,180.107L254.592,179.936L254.634,179.765L254.675,179.594L254.716,179.423L254.755,179.251L254.793,179.078L254.83,178.905L254.866,178.732L254.901,178.559L254.935,178.385L254.968,178.21L255,178.036L255.031,177.86L255.06,177.685L255.089,177.509L255.116,177.333L255.143,177.156L255.168,176.979L255.192,176.802L255.216,176.624L255.238,176.446L255.259,176.268L255.279,176.089L255.297,175.91L255.315,175.731L255.332,175.551L255.347,175.371L255.361,175.19L255.375,175.01L255.387,174.829L255.398,174.647L255.407,174.465L255.416,174.283L255.424,174.101L255.43,173.918L255.435,173.735L255.439,173.552L255.442,173.368L255.444,173.184L255.444,173L255.444,172.816L255.442,172.632L255.439,172.448L255.435,172.265L255.43,172.082L255.424,171.899L255.416,171.717L255.407,171.535L255.398,171.353L255.387,171.171L255.375,170.99L255.361,170.81L255.347,170.629L255.332,170.449L255.315,170.269L255.297,170.09L255.279,169.911L255.259,169.732L255.238,169.554L255.216,169.376L255.192,169.198L255.168,169.021L255.143,168.844L255.116,168.667L255.089,168.491L255.06,168.315L255.031,168.14L255,167.964L254.968,167.79L254.935,167.615L254.901,167.441L254.866,167.268L254.83,167.095L254.793,166.922L254.755,166.749L254.716,166.577L254.675,166.406L254.634,166.235L254.592,166.064L254.549,165.893L254.504,165.723L254.459,165.554L254.413,165.385L254.365,165.216L254.317,165.048L254.267,164.88L254.217,164.712L254.165,164.545L254.113,164.379L254.06,164.213L254.005,164.047L253.95,163.882L253.893,163.717L253.836,163.553L253.778,163.389L253.718,163.225L253.658,163.062L253.597,162.9L253.535,162.738L253.472,162.576L253.407,162.415L253.342,162.255L253.276,162.095L253.209,161.935L253.141,161.776L253.072,161.617L253.003,161.459L252.932,161.302L252.86,161.144L252.788,160.988L252.714,160.832L252.64,160.676L252.564,160.521L252.488,160.366L252.411,160.212L252.333,160.059L252.254,159.906L252.174,159.753L252.093,159.601L252.011,159.45L251.929,159.299L251.845,159.149L251.761,158.999L251.676,158.85L251.59,158.701L251.503,158.553L251.415,158.406L251.326,158.259L251.237,158.113L251.146,157.967L251.055,157.822L250.963,157.677L250.87,157.533L250.776,157.39L250.681,157.247L250.586,157.105L250.49,156.963L250.392,156.822L250.294,156.682L250.196,156.542L250.096,156.403L249.995,156.264L249.894,156.126L249.792,155.989L249.689,155.852L249.586,155.716L249.481,155.581L249.376,155.446L249.27,155.312L249.163,155.178L249.055,155.046L248.947,154.913L248.838,154.782L248.728,154.651L248.617,154.521L248.505,154.391L248.393,154.263L248.28,154.134L248.166,154.007L248.052,153.88L247.936,153.754L247.82,153.629L247.704,153.504L247.586,153.38L247.468,153.257L247.349,153.134L247.229,153.012L247.109,152.891L246.988,152.771L246.866,152.651L246.743,152.532L246.62,152.414L246.496,152.296L246.371,152.18L246.246,152.064L246.12,151.948L245.993,151.834L245.866,151.72L245.737,151.607L245.609,151.495L245.479,151.383L245.349,151.272L245.218,151.162L245.087,151.053L244.955,150.945L244.822,150.837L244.688,150.73L244.554,150.624L244.419,150.519L244.284,150.414L244.148,150.311L244.011,150.208L243.874,150.106L243.736,150.005L243.597,149.904L243.458,149.804L243.318,149.706L243.178,149.608L243.037,149.51L242.895,149.414L242.753,149.319L242.61,149.224L242.467,149.13L242.323,149.037L242.178,148.945L242.033,148.854L241.887,148.763L241.741,148.674L241.594,148.585L241.447,148.497L241.299,148.41L241.15,148.324L241.001,148.239L240.851,148.155L240.701,148.071L240.55,147.989L240.399,147.907L240.247,147.826L240.094,147.746L239.941,147.667L239.788,147.589L239.634,147.512L239.479,147.436L239.324,147.36L239.168,147.286L239.012,147.212L238.856,147.14L238.698,147.068L238.541,146.997L238.383,146.928L238.224,146.859L238.065,146.791L237.905,146.724L237.745,146.658L237.585,146.593L237.424,146.528L237.262,146.465L237.1,146.403L236.938,146.342L236.775,146.282L236.611,146.222L236.447,146.164L236.283,146.107L236.118,146.05L235.953,145.995L235.787,145.94L235.621,145.887L235.455,145.835L235.288,145.783L235.12,145.733L234.952,145.683L234.784,145.635L234.615,145.587L234.446,145.541L234.277,145.496L234.107,145.451L233.936,145.408L233.765,145.366L233.594,145.325L233.423,145.284L233.251,145.245L233.078,145.207L232.905,145.17L232.732,145.134L232.559,145.099L232.385,145.065L232.21,145.032L232.036,145L231.86,144.969L231.685,144.94L231.509,144.911L231.333,144.884L231.156,144.857L230.979,144.832L230.802,144.808L230.624,144.784L230.446,144.762L230.268,144.741L230.089,144.721L229.91,144.703L229.731,144.685L229.551,144.668L229.371,144.653L229.19,144.639L229.01,144.625L228.829,144.613L228.647,144.602L228.465,144.593L228.283,144.584L228.101,144.576L227.918,144.57L227.735,144.565L227.552,144.561L227.368,144.558L227.184,144.556L227,144.556L226.816,144.556Z" style="fill:rgb(46,58,65);"/>
        </g>
        <g transform="matrix(1,0,0,1,-14.5321,10.3105)">
            <text x="285.446px" y="121.783px" style="font-family:'SourceSansPro-Bold', 'Source Sans Pro', sans-serif;font-weight:700;font-size:36px;fill:rgb(46,58,65);">o</text>
        </g>
    </g>
</svg>
